<svg width="200" height="200" viewBox="0 0 200 200" fill="none" xmlns="http://www.w3.org/2000/svg">
<path d="M50 200C77.6 200 100 185.067 100 166.667V133.333H50C22.4 133.333 0 148.267 0 166.667C0 185.067 22.4 200 50 200Z" fill="#0ACF83"/>
<path d="M0 100C0 81.6 22.4 66.6666 50 66.6666H100V133.333H50C22.4 133.333 0 118.4 0 100Z" fill="#A259FF"/>
<path d="M0 33.3333C0 14.9333 22.4 0 50 0H100V66.6667H50C22.4 66.6667 0 51.7333 0 33.3333Z" fill="#F24E1E"/>
<path d="M100 0H150C177.6 0 200 14.9333 200 33.3333C200 51.7333 177.6 66.6667 150 66.6667H100V0Z" fill="#FF7262"/>
<path d="M200 100C200 118.4 177.6 133.333 150 133.333C122.4 133.333 100 118.4 100 100C100 81.6 122.4 66.6666 150 66.6666C177.6 66.6666 200 81.6 200 100Z" fill="#1ABCFE"/>
</svg>
