<svg width="200" height="200" viewBox="0 0 200 200" fill="none" xmlns="http://www.w3.org/2000/svg">
<path d="M199.652 39.2056L181.495 183.449L99.8781 199.495L18.4859 183.471L0.347656 39.2056H199.652Z" fill="#E44D26"/>
<path d="M100 187.23L165.951 174.264L181.466 51.0011H100V187.23Z" fill="#F16529"/>
<path d="M64.703 86.3889H99.9999V68.6953H37.4351L38.0319 73.4421L44.1647 122.201H99.9999V104.508H66.9835L64.703 86.3889ZM70.3265 131.048H45.2796L48.7749 158.83L99.8851 168.891L99.9999 168.869V150.46L99.8905 150.48L72.103 145.16L70.3265 131.048Z" fill="#EBEBEB"/>
<path d="M18.8906 0H31.5703V8.88366H43.1695V0H55.85V26.9019H43.1703V17.8936H31.5711V26.9019H18.8914V0H18.8906ZM72.5234 8.92133H61.3625V0H96.3734V8.92133H85.2055V26.9019H72.5258V8.92133H72.525H72.5234ZM101.93 0H115.151L123.284 9.45263L131.409 0H144.635V26.9019H132.007V13.5679L123.284 23.133H123.065L114.336 13.5679V26.9019H101.93V0ZM150.945 0H163.629V18.01H181.46V26.9019H150.945V0H150.945Z" fill="black"/>
<path d="M99.9139 122.201H130.638L127.741 145.149L99.9131 150.475V168.883L151.064 158.83L151.439 155.84L157.303 109.259L157.912 104.508H99.9139V122.201ZM99.9139 86.3457V86.3889H160.182L160.682 82.4122L161.819 73.4421L162.415 68.6953H99.9139V86.3463V86.3457Z" fill="white"/>
</svg>
