<svg width="198" height="200" viewBox="0 0 198 200" fill="none" xmlns="http://www.w3.org/2000/svg">
<path d="M98.8789 199.248L18.0195 183.239L0 39.0978H198L179.962 183.217L98.8789 199.248Z" fill="#264DE4"/>
<path d="M164.291 174.264L179.652 51.0011H99V187.23L164.291 174.264Z" fill="#2965F1"/>
<path d="M41.5098 104.508L43.7234 122.201H99.0002V104.508H41.5098ZM37.061 68.6953L39.3063 86.389H99.0002V68.6953H37.061ZM99.0002 150.46L98.8919 150.48L71.3823 145.16L69.6235 131.048H44.8271L48.2875 158.83L98.8865 168.891L99.0002 168.869V150.46Z" fill="#EBEBEB"/>
<path d="M46.7808 0H76.6973V8.96177H59.2919V17.9235H76.6989V26.8848H46.7808V0ZM82.6814 0H112.599V7.7928H95.1925V9.35125H112.599V27.2748H82.6822V19.0914H100.088V17.533H82.6806V0H82.6814ZM118.583 0H148.5V7.7928H131.094V9.35125H148.5V27.2748H118.583V19.0914H135.989V17.533H118.584V0H118.583Z" fill="black"/>
<path d="M156.333 104.508L160.791 68.6953H98.9148V86.389H133.721L131.473 104.508H98.9148V122.201H129.332L126.464 145.149L98.9141 150.475V168.883L149.553 158.83L149.925 155.841L155.73 109.259L156.333 104.508Z" fill="white"/>
</svg>
