<svg width="200" height="135" viewBox="0 0 200 135" fill="none" xmlns="http://www.w3.org/2000/svg">
<path d="M100 134.6C155.228 134.6 200 104.469 200 67.3C200 30.1312 155.228 0 100 0C44.7715 0 0 30.1312 0 67.3C0 104.469 44.7715 134.6 100 134.6Z" fill="url(#paint0_radial_15_24)"/>
<path d="M100 129.6C153.071 129.6 196.094 101.707 196.094 67.3C196.094 32.8927 153.071 5 100 5C46.9289 5 3.90625 32.8927 3.90625 67.3C3.90625 101.707 46.9289 129.6 100 129.6Z" fill="#6181B6"/>
<path d="M119.453 87.5L124.219 56.1C125.312 49 124.375 43.7 121.562 40.4C118.828 37.2 114.14 35.6 107.265 35.6H98.9842L101.328 20C101.406 19.4 101.328 18.8 101.015 18.3C100.703 17.8 100.312 17.6 99.8436 17.6H88.4374C87.6561 17.6 87.0311 18.3 86.8749 19.2L81.7967 52.5C81.328 48.7 80.2342 45.5 78.3592 42.9C74.9999 38 69.7655 35.5 62.6561 35.5H40.703C39.9217 35.5 39.2967 36.2 39.1405 37.1L28.9061 104.7C28.828 105.3 28.9061 105.9 29.2186 106.4C29.5311 106.9 29.9217 107.1 30.3905 107.1H41.8749C42.6561 107.1 43.2811 106.4 43.4374 105.5L45.9374 89.2H54.453C58.9061 89.2 62.7342 88.6 65.6249 87.4C68.6717 86.1 71.4061 84 73.828 81.1C75.7811 78.8 77.4217 76.2 78.6717 73.4L76.6405 86.9C76.5624 87.5 76.6405 88.1 76.953 88.6C77.2655 89.1 77.6561 89.3 78.1249 89.3H89.5311C90.3124 89.3 90.9374 88.6 91.0936 87.7L96.7186 50.7H104.531C107.89 50.7 108.828 51.5 109.14 51.9C109.375 52.2 109.844 53.4 109.297 57.1L104.765 87C104.687 87.6 104.765 88.2 105.078 88.7C105.39 89.2 105.781 89.4 106.25 89.4H117.969C118.672 89.1 119.297 88.4 119.453 87.5ZM66.6405 61.5C65.9374 66.2 64.6092 69.6 62.6561 71.5C60.703 73.4 57.4999 74.4 53.2811 74.4H48.203L51.8749 50.2H58.4374C63.2811 50.2 65.2342 51.5 66.0155 52.6C67.0311 54.2 67.2655 57.3 66.6405 61.5ZM168.203 42.9C164.844 38 159.609 35.5 152.5 35.5H130.39C129.609 35.5 128.984 36.2 128.828 37.1L118.594 104.6C118.515 105.2 118.594 105.8 118.906 106.3C119.219 106.8 119.609 107 120.078 107H131.562C132.344 107 132.969 106.3 133.125 105.4L135.625 89.1H144.14C148.594 89.1 152.422 88.5 155.312 87.3C158.359 86 161.094 83.9 163.515 81C165.547 78.6 167.265 75.9 168.515 73C169.765 70.1 170.703 66.9 171.25 63.4C172.578 54.7 171.562 47.9 168.203 42.9ZM156.25 61.5C155.547 66.2 154.219 69.6 152.265 71.5C150.312 73.4 147.109 74.4 142.89 74.4H137.812L141.484 50.2H148.047C152.89 50.2 154.844 51.5 155.625 52.6C156.719 54.2 156.953 57.3 156.25 61.5Z" fill="white"/>
<path d="M58.4375 48.2C62.8125 48.2 65.7031 49.2 67.1875 51.3C68.6719 53.4 68.9844 56.9 68.2031 61.9C67.4219 67.1 65.8594 70.9 63.5938 73.1C61.3281 75.3 57.8906 76.4 53.2812 76.4H46.3281L50.625 48.2H58.4375ZM30.4688 105H41.9531L44.6875 87.1H54.5313C58.9063 87.1 62.4219 86.5 65.2344 85.3C68.0469 84.1 70.5469 82.2 72.8906 79.4C74.8438 77.1 76.4063 74.6 77.5781 71.9C78.75 69.2 79.6094 66.2 80.0781 62.9C81.3281 54.9 80.3906 48.7 77.3438 44.2C74.2969 39.7 69.4531 37.5 62.8125 37.5H40.7031L30.4688 105ZM88.5156 19.6H99.9219L97.1875 37.5H107.344C113.75 37.5 118.125 38.9 120.547 41.8C122.969 44.7 123.672 49.3 122.734 55.7L117.969 87.1H106.406L110.938 57.2C111.484 53.8 111.25 51.5 110.391 50.3C109.531 49.1 107.578 48.4 104.688 48.4H95.5469L89.6875 87.1H78.2812L88.5156 19.6ZM148.047 48.2C152.422 48.2 155.312 49.2 156.797 51.3C158.281 53.4 158.594 56.9 157.812 61.9C157.031 67.1 155.469 70.9 153.203 73.1C150.938 75.3 147.5 76.4 142.891 76.4H135.938L140.234 48.2H148.047ZM120.078 105H131.562L134.297 87.1H144.141C148.516 87.1 152.031 86.5 154.844 85.3C157.656 84.1 160.156 82.2 162.5 79.4C164.453 77.1 166.016 74.6 167.188 71.9C168.359 69.2 169.219 66.2 169.688 62.9C170.938 54.9 170 48.7 166.953 44.2C163.906 39.7 159.062 37.5 152.422 37.5H130.312L120.078 105Z" fill="#000004"/>
<defs>
<radialGradient id="paint0_radial_15_24" cx="0" cy="0" r="1" gradientUnits="userSpaceOnUse" gradientTransform="translate(60.0403 23.6675) scale(131.325 168.095)">
<stop stop-color="white"/>
<stop offset="0.5" stop-color="#4C6B97"/>
<stop offset="1" stop-color="#231F20"/>
</radialGradient>
</defs>
</svg>
