<svg width="200" height="200" viewBox="0 0 200 200" fill="none" xmlns="http://www.w3.org/2000/svg">
<g clip-path="url(#clip0_15_22)">
<path d="M164.44 64.7577C162.311 63.9378 160.165 63.1782 158.002 62.4797C158.366 60.813 158.7 59.1665 158.997 57.549C163.87 30.9867 160.684 9.58757 149.802 2.54195C139.369 -4.21243 122.305 2.83055 105.073 19.67C103.374 21.3326 101.714 23.0431 100.092 24.7998C99.0067 23.6317 97.9021 22.4861 96.7789 21.3639C78.718 3.35862 60.6148 -4.22998 49.7445 2.83581C39.3203 9.61125 36.2336 29.7279 40.6211 54.9016C41.0576 57.3948 41.5505 59.8751 42.0992 62.3402C39.5367 63.1577 37.0641 64.0279 34.6977 64.9542C13.5227 73.2437 0 86.234 0 99.7086C0 113.625 14.5172 127.584 36.5719 136.048C38.3599 136.731 40.1628 137.365 41.9789 137.947C41.3891 140.602 40.8654 143.275 40.4086 145.963C36.2258 170.7 39.4922 190.341 49.8883 197.074C60.6258 204.026 78.6477 196.881 96.1953 179.657C97.6182 178.257 99.0098 176.817 100.369 175.338C102.125 177.241 103.927 179.088 105.775 180.877C122.773 197.3 139.561 203.931 149.947 197.181C160.674 190.208 164.161 169.108 159.634 143.437C159.278 141.426 158.878 139.424 158.435 137.435C159.701 137.014 160.943 136.581 162.154 136.13C185.082 127.601 200 113.811 200 99.7086C200 86.1849 186.041 73.1069 164.44 64.7577ZM159.467 127.024C158.373 127.431 157.252 127.823 156.108 128.204C153.577 119.207 150.161 109.64 145.98 99.7551C149.97 90.106 153.254 80.6612 155.714 71.7226C157.76 72.3876 159.745 73.0884 161.659 73.8279C180.167 80.9823 191.456 91.5586 191.456 99.7086C191.456 108.389 179.264 119.659 159.467 127.024ZM151.253 145.3C153.255 156.651 153.54 166.914 152.214 174.938C151.023 182.147 148.628 186.953 145.666 188.879C139.363 192.975 125.884 187.651 111.348 173.605C109.629 171.941 107.952 170.224 106.319 168.456C111.955 161.536 117.587 153.491 123.084 144.556C132.752 143.593 141.887 142.017 150.17 139.867C150.569 141.668 150.93 143.48 151.253 145.3ZM68.1844 188.171C62.0266 190.612 57.1219 190.682 54.157 188.763C47.8484 184.678 45.2258 168.907 48.8031 147.752C49.2284 145.253 49.7153 142.767 50.2633 140.297C58.4555 142.332 67.5234 143.795 77.2148 144.678C82.7492 153.421 88.5437 161.457 94.3836 168.494C93.1425 169.842 91.8721 171.156 90.5734 172.434C82.8133 180.05 75.0375 185.453 68.1844 188.171ZM39.3359 126.971C29.5836 123.228 21.5297 118.364 16.0094 113.056C11.0484 108.287 8.54453 103.551 8.54453 99.7086C8.54453 91.5314 19.4016 81.1016 37.5102 74.013C39.7078 73.1534 42.0078 72.3419 44.3945 71.5805C46.8977 80.7209 50.1805 90.2779 54.1422 99.9419C50.1289 109.749 46.7992 119.459 44.2719 128.707C42.6141 128.174 40.9683 127.595 39.3359 126.971ZM49.0063 53.0586C45.2477 31.4911 47.7438 15.2218 54.0258 11.1384C60.7164 6.78932 75.5117 12.9902 91.1062 28.5376C92.1231 29.5537 93.1236 30.5904 94.107 31.6472C88.2961 38.6534 82.5547 46.6297 77.0695 55.3209C67.6633 56.2998 58.6594 57.8718 50.3812 59.9779C49.8712 57.6851 49.4127 55.3782 49.0063 53.0595V53.0586ZM135.277 76.9779C133.322 73.1857 131.294 69.4413 129.195 65.7472C135.577 66.6534 141.691 67.856 147.432 69.3262C145.709 75.5297 143.56 82.0148 141.031 88.6639C139.183 84.7259 137.264 80.8298 135.277 76.9779ZM100.096 38.5034C104.037 43.2972 107.984 48.649 111.866 54.456C103.991 54.0384 96.1025 54.0366 88.2273 54.4507C92.1133 48.6972 96.0938 43.3525 100.096 38.5034ZM64.6891 77.0437C62.7268 80.8646 60.8443 84.7364 59.043 88.656C56.5555 82.0305 54.4266 75.5156 52.6883 69.2244C58.3945 67.7911 64.4797 66.6191 70.8203 65.7297C68.698 69.4463 66.6537 73.2184 64.6891 77.0428V77.0437ZM71.0023 134.37C64.4516 133.549 58.275 132.438 52.5703 131.043C54.3359 124.639 56.5117 117.986 59.0531 111.218C60.8616 115.141 62.752 119.015 64.7227 122.838C66.7492 126.767 68.8477 130.617 71.0023 134.37ZM100.332 161.589C96.282 156.684 92.243 151.257 88.2984 145.42C92.1281 145.588 96.032 145.674 100 145.674C104.077 145.674 108.106 145.572 112.073 145.374C108.178 151.316 104.246 156.751 100.332 161.589ZM141.112 110.873C143.785 117.715 146.038 124.333 147.827 130.627C142.029 132.113 135.768 133.309 129.171 134.198C131.285 130.435 133.332 126.626 135.311 122.772C137.323 118.854 139.257 114.887 141.112 110.873ZM127.91 117.979C124.881 123.888 121.681 129.685 118.316 135.36C112.22 135.845 106.111 136.086 100 136.082C93.7758 136.082 87.7219 135.865 81.8922 135.44C78.4392 129.778 75.1783 123.971 72.1164 118.031H72.1172C69.0697 112.124 66.2231 106.088 63.5836 99.9376C66.2164 93.7857 69.0543 87.7472 72.0914 81.8349L72.0906 81.8358C75.1266 75.922 78.3614 70.1397 81.7883 64.5016C87.7359 63.9963 93.8352 63.7332 99.9992 63.7332H100C106.192 63.7332 112.299 63.999 118.245 64.5077C121.638 70.1374 124.852 75.8998 127.882 81.784C130.929 87.6833 133.805 93.6924 136.504 99.8016C133.832 105.973 130.966 112.036 127.91 117.979ZM145.535 10.8525C152.232 15.1893 154.837 32.6779 150.629 55.6121C150.36 57.0753 150.059 58.5656 149.73 60.077C141.432 57.9262 132.422 56.327 122.988 55.3332C117.493 46.5463 111.798 38.5577 106.082 31.6419C107.58 30.0205 109.114 28.441 110.682 26.9051C125.448 12.4779 139.248 6.78143 145.535 10.8525ZM100 79.656C109.863 79.656 117.859 88.634 117.859 99.7086C117.859 110.783 109.863 119.761 100 119.761C90.1367 119.761 82.1406 110.783 82.1406 99.7086C82.1406 88.634 90.1367 79.656 100 79.656Z" fill="#00D8FF"/>
</g>
<defs>
<clipPath id="clip0_15_22">
<rect width="200" height="199.795" fill="white"/>
</clipPath>
</defs>
</svg>
