<svg width="200" height="200" viewBox="0 0 200 200" fill="none" xmlns="http://www.w3.org/2000/svg">
<g clip-path="url(#clip0_15_29)">
<path d="M59.4961 131.975L65.5742 160.908C66.9398 167.477 67.5094 172.062 67.2812 174.676C70.6055 161.615 72.9281 147.381 74.2496 131.975H81.5582C78.4156 157.056 74.2707 175.282 69.1258 186.652C65.1172 195.413 60.7258 199.794 55.9438 199.794C54.6688 199.794 53.0969 199.229 51.2316 198.107V192.061C52.143 192.257 53.2121 192.362 54.4418 192.362C56.6727 192.362 58.4707 191.454 59.8387 189.644C61.4766 187.438 62.2965 184.959 62.2965 182.211C62.2965 180.335 61.657 176.485 60.384 170.66L51.9152 131.975H59.4957H59.4961ZM12.9777 114.193L24.1105 164.024H24.1793L35.3805 114.193H44.532C46.5359 138.905 47.7195 161.517 48.0828 182.013H40.3672C40.0957 162.853 39.3438 144.837 38.1141 127.961H38.0469L26.2977 182.013H20.4219L8.74375 127.961H8.675C7.80859 144.168 7.26328 162.184 7.03594 182.013H0C0.454688 157.898 1.59258 135.293 3.41367 114.193H12.9781H12.9777Z" fill="#00758F"/>
<path d="M137.695 113.186C149.67 113.186 155.658 124.41 155.658 146.848C155.658 159.04 153.857 168.25 150.259 174.472C149.611 175.609 148.894 176.591 148.139 177.501L156.614 183.648L156.606 183.648L153.597 191.27L142.56 181.824C140.731 182.618 138.718 183.015 136.525 183.015C130.645 183.015 126.252 180.501 123.349 175.48C120.161 169.924 118.568 161.179 118.568 149.258C118.568 137.134 120.366 127.959 123.965 121.73C127.243 116.031 131.82 113.186 137.695 113.186V113.186ZM101.023 113.285C105.303 113.285 109.195 114.965 112.7 118.313L110.92 124.134C107.92 122.264 104.963 121.324 102.046 121.324C99.6798 121.324 97.8563 122.16 96.5853 123.841C95.3071 125.508 94.5165 127.652 94.5165 130.266C94.5165 134.284 96.4673 137.767 100.069 140.711C101.249 141.657 102.425 142.614 103.597 143.582L103.866 143.804L104 143.915L104.27 144.137L104.404 144.248L104.673 144.47C107.399 146.725 109.965 148.878 109.965 148.878C113.567 152.629 115.362 156.628 115.362 163.214C115.362 168.966 113.925 173.687 111.061 177.382C108.195 181.06 104.345 182.904 99.5228 182.904C95.013 182.904 90.6423 180.781 86.4087 176.571L88.3892 170.746C92.0325 173.425 95.3294 174.763 98.2899 174.763C101.067 174.763 103.24 173.853 104.812 172.057C106.381 170.248 107.322 167.725 107.322 164.525C107.322 160.499 105.412 157.056 101.909 154.168C100.813 153.28 99.72 152.383 98.6302 151.477L98.3618 151.254C97.8688 150.845 97.3724 150.432 96.886 150.026L96.6224 149.806C94.2571 147.833 92.2122 146.108 92.2122 146.108C88.7106 142.351 86.9548 138.319 86.9548 131.676C86.9548 126.182 88.2642 121.742 90.879 118.363C93.5001 114.978 96.8817 113.285 101.023 113.285ZM169.732 114.193V173.67H184.278V182.013H162.354V114.193H169.732ZM192.361 173.696V175.105H190.761V182.005H189.539V175.105H187.877V173.696H192.361H192.361ZM195.314 173.696L196.849 179.36L198.26 173.696H199.993V182.005H198.841V175.681L197.235 182.005H196.404L194.796 175.681H194.734V182.005H193.644V173.696H195.314H195.314ZM136.942 121.527C129.884 121.527 126.354 130.071 126.354 147.148C126.354 156.931 127.29 164.024 129.157 168.445C130.887 172.537 133.596 174.579 137.284 174.579C144.342 174.579 147.872 165.968 147.872 148.754C147.872 139.109 146.936 132.076 145.071 127.653C143.339 123.57 140.631 121.527 136.942 121.527H136.942Z" fill="#F29111"/>
<path d="M118.444 4.20221C120.785 -4.23676 128.971 2.15407 132.148 5.10192C132.926 5.83946 133.819 7.39762 134.712 7.97356C136.104 8.05378 137.496 8.21367 138.89 8.29906C141.507 9.20106 143.958 9.93803 146.019 11.6607C155.601 19.9386 161.838 28.3741 167.578 42.3077C168.805 45.2589 169.417 48.4526 170.419 51.6463C171.81 56.4068 173.373 61.4039 174.987 65.9054C175.709 68.0395 176.268 70.4125 177.272 72.2148C177.664 73.0389 178.776 73.2819 179.442 73.7741C181.281 75.1707 183.509 76.2309 185.239 77.8698C188.469 80.8246 191.592 84.3455 194.431 87.9501C195.489 89.3415 196.21 91.3111 197.218 92.7827V93.5254C196.323 93.9283 195.432 94.3409 194.539 94.6715C192.589 95.4062 190.862 95.24 188.971 95.9753C187.802 96.4727 186.351 97.1289 185.125 97.2956L185.239 97.463C185.96 100.486 189.861 102.944 191.646 104.752C193.813 107.047 195.821 109.83 197.437 113.026C197.996 113.841 198.554 114.583 199.109 115.396C199.498 116.221 199.607 117.286 200 118.021V118.27C199.565 118.045 199.252 117.615 198.955 117.166L198.778 116.894C198.601 116.625 198.423 116.36 198.219 116.142C196.99 114.91 195.769 113.436 194.539 112.29C192.425 110.323 189.973 109.18 187.802 107.205C186.575 106.058 185.405 104.752 184.235 103.44C183.174 102.29 182.007 100.081 181.34 98.4423C180.948 97.5369 180.894 96.4727 180.445 95.8177C180.525 94.7237 181.208 94.3988 181.898 94.1317L182.057 94.0704C182.294 93.9799 182.527 93.8893 182.73 93.7695C185.626 91.9655 189.079 91.3111 193.538 91.475C193.37 89.8326 190.584 87.7862 189.694 86.8028C187.909 84.9151 186.019 82.9455 184.125 81.2274C183.122 80.3277 181.392 79.671 180.281 78.9357C178.776 78.0337 175.433 77.1323 174.599 75.4142C173.183 72.7059 172.166 69.4756 171.179 66.2125L170.91 65.322C170.82 65.0252 170.731 64.7285 170.641 64.432C169.473 60.5025 168.023 56.4056 166.853 52.3821C166.242 50.4194 165.961 48.6968 165.291 46.8142C161.226 35.2624 155.209 25.5907 147.914 18.789C145.517 16.5758 142.844 14.5277 139.893 13.1357C138.221 12.3948 136.214 12.8045 134.432 12.236H133.259C132.258 11.8223 131.423 10.2658 130.642 9.44519C128.917 7.72714 127.19 6.57356 125.128 5.34777C124.405 4.85608 122.341 3.71109 121.621 4.61252C121.175 4.77699 120.949 5.02399 120.839 5.68072C120.395 6.66066 120.785 8.13688 121.062 9.0406C121.898 11.6595 123.067 13.216 124.128 15.4291C125.072 17.3919 126.244 19.6051 126.913 21.7392C128.357 26.3266 129.029 31.4091 130.367 35.9959C130.863 37.7208 131.648 39.6836 132.37 41.2395C132.982 42.4744 134.095 43.3672 134.432 44.9306C135.103 46.5695 133.427 51.9776 133.039 53.695C131.588 60.4154 131.869 69.7569 133.541 75.5822L133.63 75.8893L133.719 76.2005C134.329 78.334 134.982 80.6314 136.604 81.228C136.716 81.0652 136.604 81.1506 136.826 81.0652C137.218 76.5564 137.329 72.2142 138.388 68.6864C139 66.4807 140.223 64.9214 141.06 63.1208C141.619 63.6114 141.619 65.0905 141.952 66.0693C142.677 68.6079 143.455 71.3913 144.349 73.9375C146.183 79.181 148.248 84.2647 150.586 88.8515C151.369 90.4899 152.481 92.2933 153.483 93.769C153.93 94.3403 154.43 94.6704 154.765 95.4056H154.874V95.6532C153.203 94.7495 152.144 92.2131 150.811 90.7323C148.302 87.9489 145.297 83.769 143.567 79.7581C142.844 77.4555 142.062 75.2486 141.282 72.9575V72.7919C140.949 73.4463 141.06 74.0962 140.894 75.0864C140.17 79.181 140.727 83.8521 138.221 85.3248C135.379 87.0498 133.26 82.5415 132.37 80.4928C129.528 73.6928 128.749 62.2211 130.754 52.9609C131.199 50.9111 131.26 48.4526 132.037 46.816C131.869 45.3363 131.092 44.9317 130.642 44.0251C129.862 42.4756 129.195 40.6704 128.584 38.9495C127.412 35.5879 126.577 31.5713 125.687 27.9661C125.296 26.4939 125.183 25.016 124.793 23.6223C124.128 21.495 122.901 19.3609 121.954 17.479C120.673 14.7741 116.94 9.53172 118.444 4.20221ZM136.715 20.2566C136.864 20.4756 137.043 20.667 137.229 20.8555L137.453 21.0813C137.752 21.385 138.042 21.7048 138.219 22.1403C138.5 22.7168 138.553 23.2859 138.889 23.8635C138.889 25.8332 138.5 27.1426 137.715 27.9587C137.715 27.9587 137.661 28.0446 137.606 28.1248C137.161 26.812 136.771 25.5059 136.322 24.1942C135.77 23.0492 134.989 22.1409 134.539 20.8326H134.431V20.6681C135.103 20.4246 135.77 20.2566 136.715 20.2566Z" fill="#00758F"/>
</g>
<defs>
<clipPath id="clip0_15_29">
<rect width="200" height="200" fill="white"/>
</clipPath>
</defs>
</svg>
