<svg width="200" height="200" viewBox="0 0 200 200" fill="none" xmlns="http://www.w3.org/2000/svg">
<path d="M172.216 114.973C165.239 115.021 159.174 117.261 154.097 120.574C152.233 115.654 150.37 111.27 150.042 108.055C149.676 104.305 149.238 102.015 149.676 97.5334C150.115 93.0519 152.087 86.6702 152.051 86.1834C152.015 85.6966 151.612 83.4068 147.594 83.3587C143.576 83.3096 140.105 84.3814 139.703 85.7938C139.301 87.2061 138.534 90.4215 138.023 93.733C137.329 98.6052 129.987 115.994 125.786 125.103C124.434 121.549 123.265 118.43 123.009 115.946C122.644 112.196 122.205 109.906 122.644 105.425C123.082 100.943 125.055 94.5625 125.018 94.0746C124.981 93.5878 124.579 91.298 120.561 91.2499C116.542 91.2008 113.072 92.2726 112.671 93.685C112.269 95.0984 111.83 98.4099 110.99 101.625C110.15 104.841 100.396 133.873 97.8392 141.374C96.8058 144.41 95.7218 147.414 94.588 150.386C94.588 150.386 94.5512 150.532 94.4415 150.775C94.0853 151.707 93.7202 152.633 93.3463 153.552V153.6C92.7979 154.916 92.2135 156.133 91.9213 156.133C91.7019 156.133 91.3 152.626 91.9941 147.852C93.4552 137.77 96.9257 122.084 96.8897 121.549C96.8897 121.256 97.547 118.529 94.6248 117.115C91.7748 115.703 90.7524 118.041 90.4963 118.041C90.2409 118.041 90.0575 118.869 90.0575 118.869C90.0575 118.869 93.2366 101.236 83.9939 101.236C78.2225 101.236 70.2583 109.663 66.3131 117.261C61.8281 120.516 57.347 123.78 52.8697 127.053C50.7153 128.66 48.4865 130.268 46.4042 131.778C46.2577 131.583 46.112 131.339 45.9655 131.145C34.787 115.216 14.1111 103.963 14.9878 82.5794C15.3168 74.7854 17.3255 54.3262 54.6966 29.4837C85.455 9.26791 109.931 14.8693 114.169 27.291C120.232 45.0227 101.054 77.9517 69.272 82.7246C57.144 84.5277 50.7874 78.2923 49.1806 75.9544C47.5002 73.5183 47.244 73.372 46.6228 73.8599C45.6004 74.5911 46.2577 76.7828 46.6228 78.0489C47.573 81.3604 51.4815 87.2061 58.0935 90.081C63.9385 92.6132 78.1489 94.0266 95.355 85.1607C114.607 75.2231 129.658 47.604 125.237 24.4663C120.817 0.987079 91.5922 -6.75785 63.9385 6.34502C47.5002 14.1401 29.6728 26.4146 16.8507 42.3923C1.61724 61.389 -0.794103 77.9026 0.192214 84.8202C3.73638 109.37 29.1252 125.348 39.2806 137.185C38.769 137.574 38.2935 137.916 37.8924 138.208C32.8143 141.569 13.453 155.062 8.63114 169.334C3.15195 185.506 9.50856 197.101 13.7092 198.658C26.7507 203.481 40.1573 194.811 47.3537 180.489C54.5501 166.168 53.6735 147.56 50.3495 139.036C50.3126 138.939 50.2766 138.84 50.203 138.743C51.5183 137.721 52.8697 136.649 54.1851 135.626C56.6026 133.72 59.0508 131.885 61.528 130.121C60.2855 134.651 59.372 140.058 58.9341 147.852C58.3857 157.011 61.1982 168.896 64.888 173.571C66.5324 175.619 68.4682 175.667 69.7107 175.667C74.0211 175.667 75.9577 170.893 78.1128 165.243C80.7428 158.326 83.1173 150.289 83.1173 150.289C83.1173 150.289 80.1583 172.014 88.1954 172.014C91.1175 172.014 94.0765 166.947 95.3918 164.366V164.414C95.3918 164.414 95.4647 164.268 95.6112 163.927C95.9034 163.294 96.0859 162.904 96.0859 162.904V162.807C97.2548 160.079 99.8855 153.893 103.794 143.614C108.835 130.365 113.694 113.804 113.694 113.804C113.694 113.804 114.133 117.846 115.63 124.569C116.507 128.514 118.332 132.849 119.794 137.038C118.625 139.231 117.895 140.448 117.895 140.448L117.931 140.497C116.981 142.153 115.959 143.955 114.826 145.71C110.844 152.041 106.096 159.301 105.438 161.394C104.67 163.878 104.853 165.681 106.315 167.143C107.374 168.215 109.273 168.36 111.21 168.215C114.79 167.873 117.31 166.704 118.552 165.974C120.488 165.048 122.753 163.635 124.872 161.54C128.781 157.692 131.155 152.188 130.936 144.931C130.826 140.936 129.84 136.941 128.634 133.19C129 132.509 129.328 131.827 129.694 131.145C135.868 119.112 140.653 105.911 140.653 105.911C140.653 105.911 141.092 109.954 142.589 116.677C143.32 120.087 144.818 123.789 146.133 127.393C140.324 133.678 136.744 140.984 135.466 145.758C133.165 154.624 134.954 158.617 138.352 159.543C139.886 159.982 142.078 159.007 143.685 158.082C145.731 157.205 148.142 155.696 150.444 153.454C154.353 149.606 158.115 144.247 157.896 136.99C157.786 133.678 157.129 130.413 156.215 127.247C161.147 124.521 167.503 123.01 175.613 124.276C193.002 127.004 196.436 141.471 195.778 147.561C195.12 153.649 191.467 156.962 190.262 157.984C189.056 159.008 188.655 159.349 188.764 160.079C188.91 161.151 189.495 161.103 190.518 160.907C191.943 160.567 199.651 155.987 199.979 144.783C200.527 130.462 190.298 114.826 172.216 114.973ZM38.0749 175.277C32.3028 183.655 24.2665 186.822 20.796 184.143C17.0701 181.268 18.5311 168.896 25.6179 160.031C29.9282 154.624 35.4811 149.605 39.1709 146.537C40.0108 145.855 41.2533 144.882 42.7511 143.663C43.0065 143.468 43.153 143.371 43.153 143.371L44.0297 142.64C46.6228 155.305 44.1393 166.461 38.0749 175.277ZM80.0855 137.185C78.076 143.713 73.8754 160.421 71.3183 159.495C69.1263 158.716 67.7741 146.05 70.8796 133.532C72.4503 127.247 75.7744 119.746 77.711 116.824C80.8524 112.147 84.323 110.587 85.1628 112.488C86.2227 114.973 81.3272 133.093 80.0855 137.185ZM114.753 159.3C113.912 159.885 113.109 160.274 112.744 159.982C112.488 159.786 113.109 159.007 113.109 159.007C113.109 159.007 117.457 152.773 119.173 149.947C120.16 148.291 121.328 146.343 122.571 144.15V144.783C122.571 152.237 117.164 157.254 114.752 159.3H114.753ZM141.493 151.165C140.872 150.58 140.982 148.632 143.064 142.543C143.868 140.156 145.767 136.162 149.019 132.314C149.384 133.872 149.64 135.383 149.603 136.795C149.566 146.197 144.526 149.704 141.493 151.165Z" fill="#CD6799"/>
</svg>
