<svg width="200" height="200" viewBox="0 0 200 200" fill="none" xmlns="http://www.w3.org/2000/svg">
<path d="M0 0H200V200H0V0Z" fill="#F7DF1E"/>
<path d="M52.5877 167.134L67.8924 157.872C70.8455 163.107 73.5314 167.537 79.9744 167.537C86.1502 167.537 90.0447 165.121 90.0447 155.724V91.8195H108.839V155.99C108.839 175.456 97.4283 184.317 80.7799 184.317C65.7447 184.317 57.0174 176.53 52.5869 167.133L52.5877 167.134ZM119.048 165.12L134.351 156.26C138.38 162.839 143.616 167.672 152.878 167.672C160.667 167.672 165.632 163.778 165.632 158.408C165.632 151.964 160.531 149.681 151.938 145.923L147.241 143.908C133.681 138.137 124.686 130.887 124.686 115.582C124.686 101.485 135.426 90.7445 152.208 90.7445C164.156 90.7445 172.749 94.907 178.924 105.781L164.289 115.18C161.067 109.407 157.578 107.125 152.207 107.125C146.703 107.125 143.212 110.616 143.212 115.18C143.212 120.818 146.703 123.102 154.757 126.592L159.456 128.605C175.432 135.453 184.427 142.434 184.427 158.14C184.427 175.057 171.136 184.32 153.281 184.32C135.828 184.32 124.551 175.996 119.047 165.121" fill="black"/>
</svg>
